<svg width="64" height="64" viewBox="0 0 64 64" fill="none"
xmlns="http://www.w3.org/2000/svg">
<defs>
  <filter id="glow-hatch" width="200%" height="200%" x="-50%" y="-50%">
    <feGaussianBlur stdDeviation="4" result="coloredBlur"/>
    <feMerge>
      <feMergeNode in="coloredBlur"/>
      <feMergeNode in="SourceGraphic"/>
    </feMerge>
  </filter>
</defs>
<g stroke="#22d3ee" stroke-width="1.4" stroke-linecap="round"
   stroke-linejoin="round" filter="url(#glow-hatch)">
<path d="M8 36h48l-4-9c-3-6-7-9-15-9H26c-8 0-12 3-15 9z"/><path d="M34 22l12 10"/><path d="M18 44a5 5 0 1 0 10 0a5 5 0 1 0 -10 0"/><path d="M36 44a5 5 0 1 0 10 0a5 5 0 1 0 -10 0"/>
</g>
</svg>
