<svg width="64" height="64" viewBox="0 0 64 64" fill="none" xmlns="http://www.w3.org/2000/svg">
<path d="M12 40h40l-3-7c-2-5-6-8-13-8H28c-7 0-11 3-13 8z" stroke="#168491" stroke-width="2" stroke-linecap="round" stroke-linejoin="round" fill="none"/>
<path d="M20 48a4 4 0 1 0 8 0a4 4 0 1 0 -8 0" fill="#168491"/>
<path d="M36 48a4 4 0 1 0 8 0a4 4 0 1 0 -8 0" fill="#168491"/>
<path d="M32 20l14 10" stroke="#168491" stroke-width="1.5" stroke-linecap="round"/>
<rect x="20" y="24" width="24" height="12" rx="1" stroke="#168491" stroke-width="1.5" fill="none"/>
</svg>
