<svg width="64" height="64" viewBox="0 0 64 64" fill="none" xmlns="http://www.w3.org/2000/svg">
<path d="M12 38h40l-3-12c-2-6-6-9-16-9H28c-10 0-14 3-16 9z" stroke="#168491" stroke-width="2" stroke-linecap="round" stroke-linejoin="round" fill="none"/>
<path d="M20 48a5 5 0 1 0 10 0a5 5 0 1 0 -10 0" fill="#168491"/>
<path d="M34 48a5 5 0 1 0 10 0a5 5 0 1 0 -10 0" fill="#168491"/>
<rect x="18" y="18" width="28" height="18" rx="2" stroke="#168491" stroke-width="1.5" fill="none"/>
<line x1="22" y1="22" x2="22" y2="34" stroke="#168491" stroke-width="1.5"/>
<line x1="28" y1="22" x2="28" y2="34" stroke="#168491" stroke-width="1.5"/>
<line x1="34" y1="22" x2="34" y2="34" stroke="#168491" stroke-width="1.5"/>
<line x1="40" y1="22" x2="40" y2="34" stroke="#168491" stroke-width="1.5"/>
</svg>
