<svg width="64" height="64" viewBox="0 0 64 64" fill="none" xmlns="http://www.w3.org/2000/svg">
<path d="M12 38h40l-2-5c-2-5-6-8-14-8H28c-8 0-12 3-14 8z" stroke="#168491" stroke-width="2" stroke-linecap="round" stroke-linejoin="round" fill="none"/>
<path d="M20 48a5 5 0 1 0 10 0a5 5 0 1 0 -10 0" fill="#168491"/>
<path d="M34 48a5 5 0 1 0 10 0a5 5 0 1 0 -10 0" fill="#168491"/>
<rect x="18" y="22" width="28" height="14" rx="2" stroke="#168491" stroke-width="1.5" fill="none"/>
<rect x="22" y="18" width="20" height="6" rx="1" stroke="#168491" stroke-width="1.5" fill="none"/>
</svg>
